<?xml version="1.0" encoding="UTF-8"?>
<svg xmlns="http://www.w3.org/2000/svg" width="42pt" height="42pt"
     viewBox="0 0 42 42" version="1.1">
    <g id="surface1">
        <path style=" stroke:none;fill-rule:nonzero;fill:rgb(0%,0%,0%);fill-opacity:1;"
              d="M 22.039062 19.960938 C 21.71875 19.640625 21.199219 19.640625 20.878906 19.960938 C 20.558594 20.28125 20.558594 20.800781 20.878906 21.121094 C 21.199219 21.441406 21.71875 21.441406 22.039062 21.121094 C 22.359375 20.800781 22.359375 20.28125 22.039062 19.960938 Z M 22.039062 19.960938 "/>
        <path style=" stroke:none;fill-rule:nonzero;fill:rgb(0%,0%,0%);fill-opacity:1;"
              d="M 32.480469 9.519531 C 30.875 7.917969 28.28125 7.917969 26.679688 9.519531 C 25.078125 11.121094 25.078125 13.722656 26.679688 15.320312 C 28.277344 16.921875 30.878906 16.921875 32.480469 15.320312 C 34.082031 13.71875 34.082031 11.125 32.480469 9.519531 Z M 31.320312 14.160156 C 30.359375 15.121094 28.796875 15.121094 27.839844 14.160156 C 26.878906 13.203125 26.878906 11.640625 27.839844 10.679688 C 28.800781 9.71875 30.355469 9.71875 31.320312 10.679688 C 32.28125 11.644531 32.28125 13.199219 31.320312 14.160156 Z M 31.320312 14.160156 "/>
        <path style=" stroke:none;fill-rule:nonzero;fill:rgb(0%,0%,0%);fill-opacity:1;"
              d="M 41.757812 0.242188 C 41.597656 0.078125 41.378906 -0.0078125 41.148438 0 C 40.964844 0.0078125 36.546875 0.183594 31.300781 2.039062 C 27.09375 3.527344 23.585938 5.652344 20.878906 8.359375 C 20.269531 8.96875 19.679688 9.609375 19.113281 10.28125 C 16.4375 8.703125 14.289062 9.199219 12.933594 9.921875 C 9.808594 11.59375 7.875 16.136719 7.875 19.382812 C 7.875 19.714844 8.078125 20.011719 8.382812 20.140625 C 8.484375 20.179688 8.589844 20.203125 8.695312 20.203125 C 8.910156 20.203125 9.121094 20.117188 9.277344 19.960938 C 10.925781 18.3125 12.957031 18.417969 13.621094 18.503906 L 13.90625 18.792969 C 13.34375 20.136719 12.886719 21.476562 12.550781 22.777344 C 12.433594 23.246094 12.472656 23.746094 12.652344 24.199219 C 11.863281 24.566406 11.101562 25.097656 10.4375 25.761719 C 8.324219 27.875 7.894531 33.019531 7.878906 33.238281 C 7.859375 33.476562 7.945312 33.714844 8.117188 33.882812 C 8.269531 34.039062 8.480469 34.125 8.695312 34.125 C 8.71875 34.125 8.738281 34.121094 8.761719 34.121094 C 8.980469 34.105469 14.125 33.675781 16.238281 31.5625 C 16.902344 30.898438 17.433594 30.136719 17.800781 29.347656 C 18.28125 29.539062 18.777344 29.5625 19.226562 29.449219 C 20.523438 29.113281 21.863281 28.65625 23.207031 28.09375 L 23.496094 28.378906 C 23.582031 29.042969 23.6875 31.074219 22.039062 32.722656 C 21.804688 32.957031 21.734375 33.308594 21.859375 33.617188 C 21.988281 33.921875 22.285156 34.125 22.617188 34.125 C 25.863281 34.125 30.40625 32.191406 32.078125 29.066406 C 32.800781 27.710938 33.296875 25.5625 31.71875 22.886719 C 32.386719 22.320312 33.03125 21.730469 33.640625 21.121094 C 36.347656 18.414062 38.472656 14.90625 39.960938 10.703125 C 41.816406 5.453125 41.992188 1.035156 42 0.851562 C 42.007812 0.621094 41.921875 0.402344 41.757812 0.242188 Z M 9.710938 17.617188 C 10.21875 15.152344 11.699219 12.445312 13.707031 11.371094 C 15.050781 10.652344 16.515625 10.722656 18.078125 11.574219 C 16.746094 13.324219 15.59375 15.207031 14.628906 17.195312 C 14.617188 17.1875 14.46875 17 14.195312 16.9375 C 14.082031 16.914062 11.914062 16.445312 9.710938 17.617188 Z M 15.078125 30.402344 C 13.949219 31.53125 11.304688 32.125 9.632812 32.367188 C 9.875 30.695312 10.46875 28.050781 11.597656 26.921875 C 12.230469 26.292969 12.960938 25.8125 13.695312 25.542969 L 16.457031 28.304688 C 16.1875 29.039062 15.710938 29.773438 15.078125 30.402344 Z M 18.816406 27.859375 C 18.578125 27.917969 18.304688 27.828125 18.101562 27.625 C 17.039062 26.5625 16.625 26.148438 16.492188 26.019531 C 16.253906 25.78125 15.667969 25.195312 14.375 23.898438 C 14.171875 23.695312 14.082031 23.421875 14.140625 23.183594 C 14.40625 22.160156 14.75 21.109375 15.167969 20.050781 L 21.949219 26.832031 C 20.890625 27.25 19.839844 27.59375 18.816406 27.859375 Z M 30.628906 28.292969 C 29.554688 30.300781 26.847656 31.78125 24.382812 32.289062 C 25.167969 30.808594 25.34375 28.925781 25.054688 27.785156 C 24.988281 27.519531 24.816406 27.386719 24.804688 27.371094 C 26.792969 26.40625 28.675781 25.253906 30.425781 23.921875 C 31.277344 25.484375 31.347656 26.949219 30.628906 28.292969 Z M 32.480469 19.960938 C 31.738281 20.703125 30.945312 21.414062 30.113281 22.085938 C 28.117188 23.691406 25.917969 25.054688 23.574219 26.136719 L 15.863281 18.425781 C 16.945312 16.082031 18.308594 13.882812 19.914062 11.886719 C 20.585938 11.054688 21.300781 10.257812 22.039062 9.519531 C 24.46875 7.089844 27.605469 5.15625 31.363281 3.765625 L 38.234375 10.636719 C 36.84375 14.394531 34.910156 17.53125 32.480469 19.960938 Z M 38.828125 8.90625 L 33.09375 3.175781 C 36.214844 2.203125 38.933594 1.839844 40.289062 1.710938 C 40.160156 3.066406 39.796875 5.785156 38.828125 8.90625 Z M 38.828125 8.90625 "/>
        <path style=" stroke:none;fill-rule:nonzero;fill:rgb(0%,0%,0%);fill-opacity:1;"
              d="M 19.71875 33.882812 C 19.398438 33.5625 18.878906 33.5625 18.558594 33.882812 L 16.238281 36.203125 C 15.917969 36.523438 15.917969 37.042969 16.238281 37.363281 C 16.558594 37.683594 17.078125 37.683594 17.398438 37.363281 L 19.71875 35.042969 C 20.039062 34.722656 20.039062 34.203125 19.71875 33.882812 Z M 19.71875 33.882812 "/>
        <path style=" stroke:none;fill-rule:nonzero;fill:rgb(0%,0%,0%);fill-opacity:1;"
              d="M 8.117188 22.28125 C 7.796875 21.960938 7.277344 21.960938 6.957031 22.28125 L 4.636719 24.601562 C 4.316406 24.921875 4.316406 25.441406 4.636719 25.761719 C 4.957031 26.082031 5.476562 26.082031 5.796875 25.761719 L 8.117188 23.441406 C 8.4375 23.121094 8.4375 22.601562 8.117188 22.28125 Z M 8.117188 22.28125 "/>
        <path style=" stroke:none;fill-rule:nonzero;fill:rgb(0%,0%,0%);fill-opacity:1;"
              d="M 13.917969 35.042969 C 13.597656 34.722656 13.078125 34.722656 12.757812 35.042969 L 7.199219 40.597656 C 6.878906 40.917969 6.878906 41.4375 7.199219 41.757812 C 7.519531 42.078125 8.039062 42.082031 8.359375 41.757812 L 13.917969 36.203125 C 14.238281 35.882812 14.238281 35.363281 13.917969 35.042969 Z M 13.917969 35.042969 "/>
        <path style=" stroke:none;fill-rule:nonzero;fill:rgb(0%,0%,0%);fill-opacity:1;"
              d="M 7.355469 35.042969 C 7.035156 34.722656 6.515625 34.722656 6.195312 35.042969 L 0.636719 40.597656 C 0.316406 40.917969 0.316406 41.4375 0.636719 41.757812 C 0.957031 42.078125 1.476562 42.082031 1.796875 41.757812 L 7.355469 36.203125 C 7.675781 35.882812 7.675781 35.363281 7.355469 35.042969 Z M 7.355469 35.042969 "/>
        <path style=" stroke:none;fill-rule:nonzero;fill:rgb(0%,0%,0%);fill-opacity:1;"
              d="M 6.957031 28.082031 C 6.636719 27.761719 6.117188 27.761719 5.796875 28.082031 L 0.242188 33.640625 C -0.078125 33.960938 -0.078125 34.480469 0.242188 34.800781 C 0.5625 35.121094 1.082031 35.121094 1.402344 34.800781 L 6.957031 29.242188 C 7.277344 28.921875 7.277344 28.402344 6.957031 28.082031 Z M 6.957031 28.082031 "/>
        <path style=" stroke:none;fill-rule:nonzero;fill:rgb(0%,0%,0%);fill-opacity:1;"
              d="M 25.519531 16.480469 C 25.199219 16.160156 24.679688 16.160156 24.359375 16.480469 L 23.199219 17.640625 C 22.878906 17.960938 22.878906 18.480469 23.199219 18.800781 C 23.519531 19.121094 24.039062 19.121094 24.359375 18.800781 L 25.519531 17.640625 C 25.839844 17.320312 25.839844 16.800781 25.519531 16.480469 Z M 25.519531 16.480469 "/>
    </g>
</svg>
