<?xml version="1.0" encoding="UTF-8"?>
<svg xmlns="http://www.w3.org/2000/svg" width="36pt" height="36pt"
     viewBox="0 0 36 36" version="1.1">
    <g id="surface1">
        <path style=" stroke:none;fill-rule:nonzero;fill:rgb(0%,0%,0%);fill-opacity:1;"
              d="M 6.683594 13.433594 L 7.476562 15.585938 C 7.507812 15.667969 7.585938 15.722656 7.667969 15.722656 C 7.757812 15.722656 7.832031 15.667969 7.863281 15.585938 L 8.65625 13.433594 C 9.296875 11.695312 10.675781 10.316406 12.414062 9.675781 L 14.566406 8.882812 C 14.648438 8.855469 14.699219 8.777344 14.699219 8.6875 C 14.699219 8.605469 14.648438 8.523438 14.566406 8.496094 L 12.414062 7.703125 C 10.675781 7.0625 9.296875 5.6875 8.65625 3.945312 L 7.863281 1.792969 C 7.832031 1.714844 7.757812 1.65625 7.667969 1.65625 C 7.585938 1.65625 7.507812 1.714844 7.476562 1.792969 L 6.683594 3.945312 C 6.039062 5.6875 4.667969 7.0625 2.921875 7.703125 L 0.773438 8.496094 C 0.691406 8.523438 0.636719 8.605469 0.636719 8.6875 C 0.636719 8.777344 0.691406 8.855469 0.773438 8.882812 L 2.921875 9.675781 C 4.667969 10.316406 6.039062 11.695312 6.683594 13.433594 Z M 6.683594 13.433594 "/>
        <path style=" stroke:none;fill-rule:nonzero;fill:rgb(0%,0%,0%);fill-opacity:1;"
              d="M 24.128906 22.527344 L 21.980469 21.730469 C 20.238281 21.089844 18.867188 19.714844 18.21875 17.972656 L 17.429688 15.820312 C 17.398438 15.742188 17.320312 15.6875 17.234375 15.6875 C 17.148438 15.6875 17.074219 15.742188 17.042969 15.820312 L 16.246094 17.972656 C 15.605469 19.714844 14.234375 21.089844 12.488281 21.730469 L 10.335938 22.527344 C 10.257812 22.558594 10.203125 22.632812 10.203125 22.71875 C 10.203125 22.804688 10.257812 22.882812 10.335938 22.914062 L 12.488281 23.703125 C 14.234375 24.351562 15.605469 25.722656 16.246094 27.464844 L 17.042969 29.613281 C 17.074219 29.699219 17.148438 29.75 17.234375 29.75 C 17.320312 29.75 17.398438 29.699219 17.429688 29.613281 L 18.21875 27.464844 C 18.867188 25.722656 20.238281 24.351562 21.980469 23.703125 L 24.128906 22.914062 C 24.214844 22.882812 24.265625 22.804688 24.265625 22.71875 C 24.265625 22.632812 24.214844 22.558594 24.128906 22.527344 Z M 24.128906 22.527344 "/>
        <path style=" stroke:none;fill-rule:nonzero;fill:rgb(0%,0%,0%);fill-opacity:1;"
              d="M 35.269531 13.320312 L 33.808594 12.78125 C 32.625 12.34375 31.6875 11.414062 31.253906 10.226562 L 30.714844 8.761719 C 30.695312 8.710938 30.644531 8.671875 30.582031 8.671875 C 30.523438 8.671875 30.472656 8.710938 30.453125 8.761719 L 29.914062 10.226562 C 29.472656 11.414062 28.542969 12.34375 27.359375 12.78125 L 25.898438 13.320312 C 25.839844 13.34375 25.804688 13.394531 25.804688 13.453125 C 25.804688 13.507812 25.839844 13.5625 25.898438 13.582031 L 27.359375 14.121094 C 28.542969 14.558594 29.472656 15.492188 29.914062 16.675781 L 30.453125 18.140625 C 30.472656 18.195312 30.523438 18.226562 30.582031 18.226562 C 30.644531 18.226562 30.695312 18.195312 30.714844 18.140625 L 31.253906 16.675781 C 31.6875 15.492188 32.625 14.558594 33.808594 14.125 L 35.269531 13.582031 C 35.328125 13.5625 35.363281 13.507812 35.363281 13.453125 C 35.363281 13.394531 35.328125 13.34375 35.269531 13.320312 Z M 35.269531 13.320312 "/>
        <path style=" stroke:none;fill-rule:nonzero;fill:rgb(0%,0%,0%);fill-opacity:1;"
              d="M 31.726562 32.578125 L 30.710938 32.199219 C 29.882812 31.894531 29.234375 31.246094 28.925781 30.417969 L 28.550781 29.394531 C 28.535156 29.359375 28.5 29.332031 28.460938 29.332031 C 28.414062 29.332031 28.378906 29.359375 28.367188 29.394531 L 27.988281 30.417969 C 27.6875 31.246094 27.035156 31.894531 26.210938 32.199219 L 25.1875 32.578125 C 25.148438 32.589844 25.125 32.625 25.125 32.664062 C 25.125 32.707031 25.148438 32.742188 25.1875 32.757812 L 26.210938 33.132812 C 27.035156 33.4375 27.6875 34.089844 27.988281 34.914062 L 28.367188 35.9375 C 28.378906 35.972656 28.414062 36 28.460938 36 C 28.5 36 28.535156 35.972656 28.550781 35.9375 L 28.925781 34.914062 C 29.234375 34.089844 29.882812 33.4375 30.710938 33.132812 L 31.726562 32.757812 C 31.769531 32.742188 31.789062 32.707031 31.789062 32.664062 C 31.789062 32.625 31.769531 32.589844 31.726562 32.578125 Z M 31.726562 32.578125 "/>
        <path style=" stroke:none;fill-rule:nonzero;fill:rgb(0%,0%,0%);fill-opacity:1;"
              d="M 24.203125 3.242188 L 23.179688 2.863281 C 22.355469 2.5625 21.703125 1.910156 21.402344 1.085938 L 21.023438 0.0664062 C 21.011719 0.0273438 20.976562 0 20.929688 0 C 20.890625 0 20.855469 0.0273438 20.84375 0.0664062 L 20.464844 1.085938 C 20.164062 1.910156 19.511719 2.5625 18.6875 2.863281 L 17.660156 3.242188 C 17.625 3.257812 17.601562 3.292969 17.601562 3.335938 C 17.601562 3.375 17.625 3.410156 17.660156 3.421875 L 18.6875 3.800781 C 19.511719 4.105469 20.164062 4.753906 20.464844 5.582031 L 20.84375 6.605469 C 20.855469 6.640625 20.890625 6.667969 20.929688 6.667969 C 20.976562 6.667969 21.011719 6.640625 21.023438 6.605469 L 21.402344 5.582031 C 21.703125 4.753906 22.355469 4.105469 23.179688 3.800781 L 24.203125 3.421875 C 24.242188 3.410156 24.265625 3.375 24.265625 3.335938 C 24.265625 3.292969 24.242188 3.257812 24.203125 3.242188 Z M 24.203125 3.242188 "/>
        <path style=" stroke:none;fill-rule:nonzero;fill:rgb(0%,0%,0%);fill-opacity:1;"
              d="M 11.6875 30.476562 L 10.40625 30.007812 C 9.363281 29.617188 8.546875 28.800781 8.164062 27.765625 L 7.691406 26.480469 C 7.671875 26.433594 7.628906 26.398438 7.578125 26.398438 C 7.523438 26.398438 7.480469 26.433594 7.460938 26.480469 L 6.988281 27.765625 C 6.605469 28.800781 5.78125 29.617188 4.746094 30.007812 L 3.460938 30.476562 C 3.414062 30.492188 3.382812 30.542969 3.382812 30.59375 C 3.382812 30.644531 3.414062 30.691406 3.460938 30.710938 L 4.746094 31.179688 C 5.78125 31.566406 6.605469 32.382812 6.988281 33.421875 L 7.460938 34.703125 C 7.480469 34.75 7.523438 34.789062 7.578125 34.789062 C 7.628906 34.789062 7.671875 34.75 7.691406 34.703125 L 8.164062 33.421875 C 8.546875 32.382812 9.363281 31.566406 10.40625 31.179688 L 11.6875 30.710938 C 11.738281 30.691406 11.769531 30.644531 11.769531 30.59375 C 11.769531 30.542969 11.738281 30.492188 11.6875 30.476562 Z M 11.6875 30.476562 "/>
    </g>
</svg>
