<?xml version="1.0" encoding="UTF-8"?>
<svg xmlns="http://www.w3.org/2000/svg" width="36pt" height="36pt"
     viewBox="0 0 36 36" version="1.1">
    <g id="surface1">
        <path style=" stroke:none;fill-rule:nonzero;fill:rgb(0%,0%,0%);fill-opacity:1;"
              d="M 14.980469 0.0234375 C 14.972656 0.0351562 14.863281 0.324219 14.738281 0.660156 C 14.609375 1 14.457031 1.371094 14.394531 1.484375 C 14.167969 1.894531 13.816406 2.277344 13.421875 2.535156 C 13.144531 2.714844 13.003906 2.777344 12.371094 3.011719 C 11.722656 3.25 11.726562 3.246094 11.726562 3.335938 C 11.726562 3.417969 11.738281 3.421875 12.417969 3.671875 C 12.972656 3.878906 13.222656 3.992188 13.476562 4.164062 C 13.824219 4.402344 14.175781 4.789062 14.398438 5.183594 C 14.449219 5.273438 14.601562 5.640625 14.734375 6 C 14.976562 6.644531 14.980469 6.652344 15.0625 6.660156 L 15.152344 6.667969 L 15.300781 6.265625 C 15.664062 5.277344 15.722656 5.152344 16.023438 4.757812 C 16.265625 4.441406 16.640625 4.140625 17.03125 3.941406 C 17.121094 3.898438 17.46875 3.761719 17.792969 3.640625 C 18.390625 3.421875 18.445312 3.390625 18.40625 3.285156 C 18.398438 3.261719 18.132812 3.148438 17.792969 3.023438 C 17.464844 2.90625 17.121094 2.765625 17.03125 2.722656 C 16.617188 2.515625 16.257812 2.214844 15.988281 1.863281 C 15.738281 1.53125 15.652344 1.347656 15.394531 0.660156 C 15.277344 0.335938 15.164062 0.0546875 15.152344 0.0351562 C 15.121094 -0.00390625 15 -0.015625 14.980469 0.0234375 Z M 14.980469 0.0234375 "/>
        <path style=" stroke:none;fill-rule:nonzero;fill:rgb(0%,0%,0%);fill-opacity:1;"
              d="M 28.25 1.660156 C 28.21875 1.671875 28.179688 1.699219 28.160156 1.71875 C 28.144531 1.742188 27.933594 2.296875 27.691406 2.953125 C 27.214844 4.25 26.992188 4.746094 26.667969 5.230469 C 26.015625 6.207031 25.125 6.980469 24.085938 7.472656 C 23.9375 7.542969 23.269531 7.800781 22.605469 8.046875 C 21.773438 8.351562 21.375 8.511719 21.339844 8.554688 C 21.277344 8.628906 21.277344 8.753906 21.339844 8.828125 C 21.371094 8.863281 21.800781 9.035156 22.585938 9.328125 C 24.160156 9.90625 24.523438 10.078125 25.183594 10.570312 C 25.953125 11.144531 26.625 11.957031 27.054688 12.832031 C 27.175781 13.078125 27.417969 13.691406 27.691406 14.429688 C 27.933594 15.085938 28.148438 15.644531 28.171875 15.667969 C 28.195312 15.695312 28.242188 15.722656 28.28125 15.726562 C 28.359375 15.746094 28.503906 15.6875 28.523438 15.632812 C 28.53125 15.613281 28.734375 15.070312 28.96875 14.429688 C 29.21875 13.746094 29.476562 13.097656 29.585938 12.863281 C 30.191406 11.621094 31.195312 10.601562 32.421875 9.988281 C 32.796875 9.796875 32.878906 9.769531 34.15625 9.296875 C 34.859375 9.039062 35.300781 8.859375 35.332031 8.824219 C 35.359375 8.792969 35.382812 8.734375 35.382812 8.691406 C 35.382812 8.648438 35.359375 8.585938 35.332031 8.554688 C 35.300781 8.515625 34.910156 8.359375 34.210938 8.101562 C 32.898438 7.617188 32.78125 7.574219 32.421875 7.394531 C 31.195312 6.777344 30.1875 5.761719 29.585938 4.515625 C 29.476562 4.285156 29.21875 3.636719 28.96875 2.953125 C 28.734375 2.3125 28.53125 1.769531 28.523438 1.75 C 28.511719 1.710938 28.371094 1.628906 28.332031 1.632812 C 28.320312 1.632812 28.28125 1.644531 28.25 1.660156 Z M 28.25 1.660156 "/>
        <path style=" stroke:none;fill-rule:nonzero;fill:rgb(0%,0%,0%);fill-opacity:1;"
              d="M 5.324219 8.683594 C 5.304688 8.695312 5.148438 9.085938 4.976562 9.546875 C 4.628906 10.492188 4.523438 10.730469 4.28125 11.09375 C 3.863281 11.722656 3.335938 12.199219 2.675781 12.539062 C 2.527344 12.617188 2.019531 12.820312 1.558594 12.992188 C 1.097656 13.164062 0.695312 13.328125 0.667969 13.351562 C 0.609375 13.40625 0.605469 13.46875 0.65625 13.535156 C 0.675781 13.566406 1.070312 13.726562 1.546875 13.90625 C 2.484375 14.253906 2.722656 14.359375 3.125 14.628906 C 3.480469 14.863281 4.007812 15.394531 4.242188 15.746094 C 4.546875 16.199219 4.597656 16.324219 5.160156 17.855469 C 5.21875 18.011719 5.28125 18.160156 5.296875 18.179688 C 5.351562 18.246094 5.445312 18.257812 5.503906 18.207031 C 5.539062 18.175781 5.675781 17.84375 5.851562 17.367188 C 6.011719 16.933594 6.1875 16.472656 6.25 16.339844 C 6.484375 15.828125 6.957031 15.21875 7.40625 14.851562 C 7.886719 14.460938 8.261719 14.273438 9.335938 13.878906 C 9.75 13.730469 10.109375 13.589844 10.148438 13.566406 C 10.21875 13.523438 10.230469 13.414062 10.171875 13.351562 C 10.148438 13.332031 10.074219 13.292969 10.007812 13.265625 C 9.941406 13.242188 9.558594 13.101562 9.15625 12.953125 C 8.753906 12.800781 8.300781 12.617188 8.15625 12.539062 C 7.382812 12.136719 6.734375 11.492188 6.339844 10.734375 C 6.253906 10.566406 6.039062 10.042969 5.859375 9.566406 C 5.6875 9.09375 5.527344 8.699219 5.507812 8.683594 C 5.460938 8.65625 5.367188 8.65625 5.324219 8.683594 Z M 5.324219 8.683594 "/>
        <path style=" stroke:none;fill-rule:nonzero;fill:rgb(0%,0%,0%);fill-opacity:1;"
              d="M 18.636719 15.726562 C 18.578125 15.777344 18.46875 16.046875 18.125 16.988281 C 17.882812 17.644531 17.605469 18.347656 17.507812 18.546875 C 17.085938 19.417969 16.40625 20.246094 15.648438 20.816406 C 15 21.300781 14.546875 21.519531 13.023438 22.082031 C 12.378906 22.316406 11.828125 22.535156 11.792969 22.566406 C 11.710938 22.636719 11.707031 22.804688 11.777344 22.875 C 11.804688 22.898438 12.382812 23.121094 13.0625 23.371094 C 13.828125 23.652344 14.4375 23.894531 14.652344 24.003906 C 15.3125 24.332031 15.8125 24.703125 16.34375 25.246094 C 17.160156 26.085938 17.457031 26.621094 18.140625 28.492188 C 18.375 29.132812 18.585938 29.679688 18.609375 29.707031 C 18.671875 29.777344 18.847656 29.773438 18.914062 29.699219 C 18.9375 29.671875 19.164062 29.105469 19.410156 28.441406 C 19.890625 27.144531 20.113281 26.652344 20.441406 26.15625 C 21.058594 25.226562 21.902344 24.484375 22.90625 23.992188 C 23.15625 23.871094 23.742188 23.636719 24.496094 23.359375 C 25.792969 22.882812 25.839844 22.859375 25.808594 22.6875 C 25.796875 22.636719 25.773438 22.585938 25.753906 22.566406 C 25.738281 22.546875 25.167969 22.324219 24.496094 22.078125 C 23.21875 21.605469 22.734375 21.390625 22.273438 21.09375 C 21.53125 20.609375 20.867188 19.945312 20.394531 19.210938 C 20.085938 18.738281 19.875 18.265625 19.40625 16.988281 C 19.160156 16.316406 18.9375 15.746094 18.917969 15.730469 C 18.898438 15.710938 18.847656 15.6875 18.796875 15.675781 C 18.730469 15.664062 18.695312 15.675781 18.636719 15.726562 Z M 18.636719 15.726562 "/>
        <path style=" stroke:none;fill-rule:nonzero;fill:rgb(0%,0%,0%);fill-opacity:1;"
              d="M 28.34375 26.414062 C 28.320312 26.433594 28.195312 26.734375 28.070312 27.085938 C 27.773438 27.890625 27.65625 28.152344 27.492188 28.421875 C 27.195312 28.898438 26.847656 29.257812 26.398438 29.5625 C 26.03125 29.808594 25.890625 29.875 25.03125 30.191406 C 24.332031 30.449219 24.253906 30.484375 24.230469 30.554688 C 24.210938 30.613281 24.214844 30.640625 24.257812 30.679688 C 24.289062 30.710938 24.636719 30.851562 25.03125 30.992188 C 26.101562 31.382812 26.492188 31.605469 27.003906 32.136719 C 27.457031 32.609375 27.636719 32.9375 28.03125 34 C 28.179688 34.394531 28.3125 34.738281 28.328125 34.757812 C 28.34375 34.777344 28.398438 34.789062 28.441406 34.785156 C 28.527344 34.777344 28.53125 34.769531 28.828125 33.976562 C 28.992188 33.535156 29.160156 33.109375 29.203125 33.03125 C 29.472656 32.503906 29.980469 31.929688 30.472656 31.605469 C 30.839844 31.363281 30.976562 31.300781 31.867188 30.972656 C 32.609375 30.699219 32.609375 30.699219 32.621094 30.609375 C 32.625 30.5625 32.609375 30.511719 32.589844 30.496094 C 32.570312 30.480469 32.246094 30.351562 31.867188 30.210938 C 31.484375 30.074219 31.09375 29.921875 30.992188 29.878906 C 30.21875 29.527344 29.550781 28.863281 29.179688 28.089844 C 29.109375 27.949219 28.941406 27.519531 28.800781 27.144531 C 28.664062 26.765625 28.53125 26.441406 28.515625 26.417969 C 28.476562 26.371094 28.402344 26.371094 28.34375 26.414062 Z M 28.34375 26.414062 "/>
        <path style=" stroke:none;fill-rule:nonzero;fill:rgb(0%,0%,0%);fill-opacity:1;"
              d="M 7.4375 29.367188 C 7.066406 30.414062 6.90625 30.796875 6.71875 31.070312 C 6.558594 31.300781 6.15625 31.695312 5.917969 31.855469 C 5.636719 32.039062 5.480469 32.109375 4.777344 32.371094 C 4.222656 32.578125 4.164062 32.609375 4.203125 32.714844 C 4.214844 32.742188 4.457031 32.84375 4.777344 32.960938 C 5.078125 33.074219 5.410156 33.203125 5.507812 33.246094 C 5.789062 33.375 6.121094 33.613281 6.363281 33.855469 C 6.753906 34.246094 6.914062 34.527344 7.179688 35.253906 C 7.476562 36.070312 7.449219 36.003906 7.546875 35.996094 C 7.632812 35.984375 7.636719 35.984375 7.867188 35.359375 C 8.101562 34.726562 8.21875 34.472656 8.402344 34.214844 C 8.664062 33.855469 9.085938 33.492188 9.457031 33.304688 C 9.558594 33.253906 9.917969 33.105469 10.257812 32.980469 C 10.867188 32.75 10.871094 32.75 10.871094 32.667969 C 10.871094 32.585938 10.863281 32.578125 10.433594 32.417969 C 9.632812 32.125 9.480469 32.058594 9.21875 31.886719 C 8.792969 31.613281 8.441406 31.234375 8.203125 30.796875 C 8.148438 30.695312 7.996094 30.328125 7.867188 29.980469 L 7.632812 29.347656 L 7.542969 29.339844 C 7.488281 29.335938 7.449219 29.34375 7.4375 29.367188 Z M 7.4375 29.367188 "/>
    </g>
</svg>
